<svg width="23" height="23" viewBox="0 0 23 23" fill="none" xmlns="http://www.w3.org/2000/svg">
<path fill-rule="evenodd" clip-rule="evenodd" d="M4.98 7.5C5.66 7.5 6.25 7.25 6.75 6.75C7.25 6.25 7.5 5.66 7.5 4.98C7.5 4.3 7.25 3.72 6.75 3.24C6.25 2.76 5.66 2.52 4.98 2.52C4.3 2.52 3.72 2.76 3.24 3.24C2.76 3.72 2.52 4.3 2.52 4.98C2.52 5.66 2.76 6.25 3.24 6.75C3.72 7.25 4.3 7.5 4.98 7.5ZM21.27 0C21.61 0 21.9 0.119999 22.14 0.36C22.38 0.600001 22.5 0.889998 22.5 1.23V8.73C22.5 9.07 22.38 9.37 22.14 9.63C21.9 9.89 21.61 10.02 21.27 10.02H1.23C0.889998 10.02 0.600001 9.89 0.36 9.63C0.119999 9.37 0 9.07 0 8.73V1.23C0 0.889998 0.119999 0.600001 0.36 0.36C0.600001 0.119999 0.889998 0 1.23 0H21.27ZM4.98 19.98C5.66 19.98 6.25 19.74 6.75 19.26C7.25 18.78 7.5 18.2 7.5 17.52C7.5 16.84 7.25 16.25 6.75 15.75C6.25 15.25 5.66 15 4.98 15C4.3 15 3.72 15.25 3.24 15.75C2.76 16.25 2.52 16.84 2.52 17.52C2.52 18.2 2.76 18.78 3.24 19.26C3.72 19.74 4.3 19.98 4.98 19.98ZM21.27 12.48C21.61 12.48 21.9 12.605 22.14 12.855C22.38 13.105 22.5 13.41 22.5 13.77V21.27C22.5 21.61 22.38 21.9 22.14 22.14C21.9 22.38 21.61 22.5 21.27 22.5H1.23C0.889998 22.5 0.600001 22.38 0.36 22.14C0.119999 21.9 0 21.61 0 21.27V13.77C0 13.41 0.119999 13.105 0.36 12.855C0.600001 12.605 0.889998 12.48 1.23 12.48H21.27Z" fill="url(#paint0_linear)"/>
<defs>
<linearGradient id="paint0_linear" x1="-11.25" y1="11.25" x2="11.25" y2="33.75" gradientUnits="userSpaceOnUse">
<stop stop-color="#888FDC"/>
<stop offset="0.993264" stop-color="#86A6DB"/>
</linearGradient>
</defs>
</svg>
