<svg width="23" height="26" viewBox="0 0 23 26" fill="none" xmlns="http://www.w3.org/2000/svg">
<path fill-rule="evenodd" clip-rule="evenodd" d="M13.77 16.29V18.75H4.98V16.29H13.77ZM19.98 22.5V8.79H2.52V22.5H19.98ZM19.98 2.52C20.66 2.52 21.25 2.77 21.75 3.27C22.25 3.77 22.5 4.36 22.5 5.04V22.5C22.5 23.18 22.25 23.77 21.75 24.27C21.25 24.77 20.66 25.02 19.98 25.02H2.52C1.82 25.02 1.225 24.77 0.735 24.27C0.244998 23.77 0 23.18 0 22.5V5.04C0 4.36 0.244998 3.77 0.735 3.27C1.225 2.77 1.82 2.52 2.52 2.52H3.75V0H6.27V2.52H16.23V0H18.75V2.52H19.98ZM17.52 11.25V13.77H4.98V11.25H17.52Z" fill="#B7BEC7"/>
</svg>
