<svg width="16" height="16" viewBox="0 0 16 16" fill="none" xmlns="http://www.w3.org/2000/svg">
<path fill-rule="evenodd" clip-rule="evenodd" d="M5.94 9.68C6.62 9.68 7.24666 9.51 7.82 9.17C8.39334 8.83 8.84667 8.37334 9.18 7.8C9.51334 7.22666 9.68 6.6 9.68 5.92C9.68 5.24 9.51334 4.61334 9.18 4.04C8.84667 3.46666 8.39334 3.01333 7.82 2.68C7.24666 2.34666 6.62 2.18 5.94 2.18C5.26 2.18 4.63334 2.34666 4.06 2.68C3.48666 3.01333 3.03 3.46666 2.69 4.04C2.35 4.61334 2.18 5.24 2.18 5.92C2.18 6.6 2.35 7.22666 2.69 7.8C3.03 8.37334 3.48666 8.83 4.06 9.17C4.63334 9.51 5.26 9.68 5.94 9.68ZM10.94 9.68L15.08 13.82L13.82 15.08L9.68 10.92V10.26L9.44 10.04C8.97333 10.4533 8.43667 10.77 7.83 10.99C7.22333 11.21 6.59334 11.32 5.94 11.32C4.95333 11.32 4.04334 11.08 3.21 10.6C2.37666 10.12 1.72 9.47334 1.24 8.66C0.746664 7.82 0.5 6.90667 0.5 5.92C0.5 4.93333 0.743331 4.02334 1.23 3.19C1.71667 2.35666 2.37666 1.7 3.21 1.22C4.04334 0.739998 4.95333 0.5 5.94 0.5C6.92667 0.5 7.84 0.746664 8.68 1.24C9.49334 1.72 10.1367 2.37333 10.61 3.2C11.0833 4.02667 11.32 4.93333 11.32 5.92C11.32 6.58667 11.21 7.22333 10.99 7.83C10.77 8.43667 10.4533 8.97333 10.04 9.44L10.26 9.68H10.94Z" fill="white"/>
</svg>
