<svg width="15" height="15" viewBox="0 0 15 15" fill="none" xmlns="http://www.w3.org/2000/svg">
<path fill-rule="evenodd" clip-rule="evenodd" d="M11.346 6.60929L11.9597 7.22306L7.22778 11.955C6.812 12.3708 6.32858 12.6529 5.7775 12.8014C5.22643 12.9499 4.67536 12.9532 4.12429 12.8113C3.57321 12.6694 3.09309 12.3939 2.68391 11.9847C2.27473 11.5755 1.99755 11.0938 1.85235 10.5394C1.70716 9.98502 1.70551 9.429 1.8474 8.87133C1.9893 8.31365 2.26813 7.82693 2.68391 7.41115L7.82175 2.27331C8.11873 1.97633 8.47016 1.77669 8.87604 1.67439C9.28193 1.5721 9.6878 1.5721 10.0937 1.67439C10.4996 1.77669 10.851 1.97633 11.148 2.27331C11.445 2.5703 11.6446 2.91843 11.7469 3.31771C11.8492 3.71699 11.8459 4.11957 11.737 4.52545C11.6281 4.93133 11.4252 5.28276 11.1282 5.57975L6.8021 9.90582C6.61731 10.0906 6.39952 10.216 6.14873 10.282C5.89795 10.348 5.64881 10.3497 5.40132 10.287C5.15383 10.2243 4.9377 10.1005 4.75291 9.91572C4.56811 9.73093 4.44107 9.5115 4.37177 9.25741C4.30248 9.00332 4.29918 8.74923 4.36187 8.49515C4.42457 8.24106 4.54831 8.02162 4.73311 7.83683L8.65331 3.91663L9.27697 4.5403L5.35677 8.4605C5.23798 8.57929 5.18188 8.71788 5.18848 8.87628C5.19508 9.03467 5.25778 9.17326 5.37657 9.29206C5.49537 9.41085 5.63066 9.47025 5.78245 9.47025C5.93425 9.47025 6.06954 9.41085 6.18833 9.29206L10.5144 4.96598C10.6992 4.78119 10.8262 4.56175 10.8955 4.30766C10.9648 4.05357 10.9681 3.79949 10.9054 3.5454C10.8427 3.29131 10.719 3.07187 10.5342 2.88708C10.3494 2.70229 10.13 2.57855 9.87589 2.51585C9.6218 2.45315 9.36607 2.4548 9.10868 2.5208C8.85129 2.5868 8.63021 2.71219 8.44542 2.89698L3.30758 8.03482C3.01059 8.33181 2.80931 8.68488 2.70371 9.09407C2.59811 9.50325 2.59646 9.91077 2.69876 10.3167C2.80106 10.7225 3.00069 11.074 3.29768 11.3709C3.59467 11.6679 3.94444 11.8659 4.34703 11.9649C4.74961 12.0639 5.15383 12.059 5.55971 11.9501C5.9656 11.8412 6.31702 11.6382 6.61401 11.3413L11.346 6.60929Z" fill="#CCCCD7"/>
</svg>
