
<svg width="14" height="17" viewBox="0 0 14 17" fill="none" xmlns="http://www.w3.org/2000/svg">
<path fill-rule="evenodd" clip-rule="evenodd" d="M10.3201 12.18V7.18C10.3201 6.48666 10.1867 5.85334 9.92007 5.28C9.6534 4.70667 9.2734 4.26 8.78007 3.94C8.2734 3.59333 7.68007 3.42 7.00007 3.42C6.32006 3.42 5.72674 3.59333 5.22007 3.94C4.72673 4.26 4.34674 4.70667 4.08007 5.28C3.8134 5.85334 3.68007 6.48666 3.68007 7.18V12.18H10.3201ZM12.0001 11.32L13.6801 13V13.82H0.320068V13L2.00007 11.32V7.18C2.00007 5.87333 2.32673 4.74667 2.98007 3.8C3.64674 2.82666 4.5734 2.19334 5.76007 1.9V1.32C5.76007 0.973333 5.88007 0.676669 6.12007 0.430001C6.36007 0.183333 6.6534 0.0600014 7.00007 0.0600014C7.34674 0.0600014 7.6434 0.183333 7.89007 0.430001C8.13674 0.676669 8.26007 0.973333 8.26007 1.32V1.9C9.43341 2.19334 10.3534 2.83333 11.0201 3.82C11.6734 4.76667 12.0001 5.88666 12.0001 7.18V11.32ZM7.00007 16.32C6.54673 16.32 6.1534 16.16 5.82007 15.84C5.48673 15.52 5.32007 15.1333 5.32007 14.68H8.68007C8.68007 15.1333 8.5134 15.52 8.18007 15.84C7.84673 16.16 7.4534 16.32 7.00007 16.32Z" fill="white"/>
</svg>
