<svg width="16" height="14" viewBox="0 0 16 14" fill="none" xmlns="http://www.w3.org/2000/svg">
<path fill-rule="evenodd" clip-rule="evenodd" d="M10.5 4.776V3.6H3.50003V4.776H10.5ZM10.5 6.526V5.35H3.50003V6.526H10.5ZM10.5 8.276V7.1H3.50003V8.276H10.5ZM12.824 2.424V12.924L10.5 10.6H2.32403C2.00669 10.6 1.73603 10.4833 1.51203 10.25C1.28802 10.0167 1.17603 9.74134 1.17603 9.424V2.424C1.17603 2.10667 1.28802 1.836 1.51203 1.612C1.73603 1.388 2.00669 1.276 2.32403 1.276H11.676C11.9934 1.276 12.264 1.388 12.488 1.612C12.712 1.836 12.824 2.10667 12.824 2.424Z" fill="#CCCCD7"/>
</svg>
