<svg width="18" height="14" viewBox="0 0 18 14" fill="none" xmlns="http://www.w3.org/2000/svg">
<path fill-rule="evenodd" clip-rule="evenodd" d="M8.99993 6.18L15.6799 2H2.31993L8.99993 6.18ZM15.6799 12V3.68L8.99993 7.82L2.31993 3.68V12H15.6799ZM15.6799 0.32C16.1333 0.32 16.5199 0.486665 16.8399 0.82C17.1599 1.15333 17.3199 1.54666 17.3199 2V12C17.3199 12.4533 17.1599 12.8467 16.8399 13.18C16.5199 13.5133 16.1333 13.68 15.6799 13.68H2.31993C1.8666 13.68 1.47993 13.5133 1.15993 13.18C0.83993 12.8467 0.679932 12.4533 0.679932 12V2C0.679932 1.54666 0.83993 1.15333 1.15993 0.82C1.47993 0.486665 1.8666 0.32 2.31993 0.32H15.6799Z" fill="white"/>
</svg>
