<svg width="24" height="23" viewBox="0 0 24 23" fill="none" xmlns="http://www.w3.org/2000/svg">
<path fill-rule="evenodd" clip-rule="evenodd" d="M18.27 17.77V12.73H15.75V17.77H18.27ZM13.23 17.77V5.23H10.77V17.77H13.23ZM8.25 17.77V8.98H5.73V17.77H8.25ZM20.73 0.25C21.41 0.25 22 0.499997 22.5 1C23 1.5 23.25 2.09 23.25 2.77V20.23C23.25 20.91 23 21.5 22.5 22C22 22.5 21.41 22.75 20.73 22.75H3.27C2.59 22.75 2 22.5 1.5 22C0.999997 21.5 0.75 20.91 0.75 20.23V2.77C0.75 2.09 0.999997 1.5 1.5 1C2 0.499997 2.59 0.25 3.27 0.25H20.73Z" fill="#B7BEC7"/>
</svg>
