<svg width="26" height="25" viewBox="0 0 26 25" fill="none" xmlns="http://www.w3.org/2000/svg">
<path fill-rule="evenodd" clip-rule="evenodd" d="M13 16.88C13.78 16.88 14.51 16.68 15.19 16.28C15.87 15.88 16.41 15.345 16.81 14.675C17.21 14.005 17.41 13.28 17.41 12.5C17.41 11.72 17.21 10.99 16.81 10.31C16.41 9.63002 15.87 9.09002 15.19 8.69002C14.51 8.29002 13.78 8.09002 13 8.09002C12.22 8.09002 11.495 8.29002 10.825 8.69002C10.155 9.09002 9.62 9.63002 9.21999 10.31C8.81999 10.99 8.61999 11.72 8.61999 12.5C8.61999 13.28 8.81999 14.005 9.21999 14.675C9.62 15.345 10.155 15.88 10.825 16.28C11.495 16.68 12.22 16.88 13 16.88ZM22.33 13.73L24.94 15.77C25.06 15.87 25.13 16 25.15 16.16C25.17 16.32 25.14 16.47 25.06 16.61L22.54 20.93C22.46 21.07 22.355 21.16 22.225 21.2C22.095 21.24 21.95 21.23 21.79 21.17L18.7 19.94C17.9 20.52 17.19 20.93 16.57 21.17L16.12 24.44C16.08 24.6 16.005 24.73 15.895 24.83C15.785 24.93 15.66 24.98 15.52 24.98H10.48C10.34 24.98 10.215 24.93 10.105 24.83C9.99499 24.73 9.92999 24.6 9.90999 24.44L9.42999 21.17C8.58999 20.83 7.89 20.42 7.32999 19.94L4.20999 21.17C3.88999 21.31 3.64 21.23 3.45999 20.93L0.939994 16.61C0.859994 16.47 0.829994 16.32 0.849994 16.16C0.869994 16 0.939994 15.87 1.05999 15.77L3.69999 13.73C3.65999 13.45 3.63999 13.04 3.63999 12.5C3.63999 11.96 3.65999 11.55 3.69999 11.27L1.05999 9.23002C0.939994 9.13002 0.869994 9.00002 0.849994 8.84002C0.829994 8.68002 0.859994 8.53002 0.939994 8.39002L3.45999 4.07002C3.64 3.77002 3.88999 3.69002 4.20999 3.83002L7.32999 5.06002C8.05 4.52002 8.74999 4.11002 9.42999 3.83002L9.90999 0.56002C9.92999 0.400019 9.99499 0.27002 10.105 0.17002C10.215 0.070019 10.34 0.0200195 10.48 0.0200195H15.52C15.66 0.0200195 15.785 0.070019 15.895 0.17002C16.005 0.27002 16.08 0.400019 16.12 0.56002L16.57 3.83002C17.35 4.13002 18.06 4.54002 18.7 5.06002L21.79 3.83002C21.95 3.77002 22.095 3.76002 22.225 3.80002C22.355 3.84002 22.46 3.93002 22.54 4.07002L25.06 8.39002C25.14 8.53002 25.17 8.68002 25.15 8.84002C25.13 9.00002 25.06 9.13002 24.94 9.23002L22.33 11.27C22.37 11.55 22.39 11.96 22.39 12.5C22.39 13.04 22.37 13.45 22.33 13.73Z" fill="#B7BEC7"/>
</svg>
